<svg xmlns="http://www.w3.org/2000/svg" viewBox="0 0 760 210" width="760" height="210" font-family="'Hiragino Sans', 'Noto Sans JP', sans-serif">
  <rect width="760" height="210" fill="#f8f9fa" rx="12"/>
  <rect x="20" y="20" width="200" height="170" rx="10" fill="#e8f4fd" stroke="#4a9eda" stroke-width="1.5"/>
  <text x="120" y="46" text-anchor="middle" font-size="13" font-weight="bold" fill="#2c7bb6">当たり判定</text>
  <circle cx="78" cy="112" r="22" fill="#4a9eda" opacity="0.85"/>
  <text x="78" y="120" text-anchor="middle" font-size="20" fill="white">人</text>
  <rect x="130" y="92" width="28" height="28" rx="5" fill="#f0a500" opacity="0.9"/>
  <text x="144" y="112" text-anchor="middle" font-size="16" fill="white">★</text>
  <line x1="101" y1="110" x2="128" y2="106" stroke="#e74c3c" stroke-width="2" stroke-dasharray="4,3"/>
  <text x="120" y="155" text-anchor="middle" font-size="11" fill="#555">キャラクターが</text>
  <text x="120" y="170" text-anchor="middle" font-size="11" fill="#555">アイテムに触れる</text>
  <line x1="230" y1="105" x2="258" y2="105" stroke="#888" stroke-width="2"/>
  <polygon points="258,100 268,105 258,110" fill="#888"/>
  <rect x="275" y="20" width="200" height="170" rx="10" fill="#eafaf1" stroke="#27ae60" stroke-width="1.5"/>
  <text x="375" y="46" text-anchor="middle" font-size="13" font-weight="bold" fill="#1e8449">変数</text>
  <rect x="310" y="62" width="130" height="52" rx="8" fill="white" stroke="#27ae60" stroke-width="1.5"/>
  <text x="328" y="94" font-size="13" fill="#555">スコア</text>
  <text x="402" y="95" text-anchor="middle" font-size="24" font-weight="bold" fill="#27ae60">3</text>
  <circle cx="375" cy="140" r="17" fill="#27ae60"/>
  <text x="375" y="146" text-anchor="middle" font-size="15" font-weight="bold" fill="white">+1</text>
  <text x="375" y="168" text-anchor="middle" font-size="11" fill="#555">アイテムごとに加算</text>
  <line x1="485" y1="105" x2="513" y2="105" stroke="#888" stroke-width="2"/>
  <polygon points="513,100 523,105 513,110" fill="#888"/>
  <rect x="530" y="20" width="210" height="170" rx="10" fill="#fef9e7" stroke="#e67e22" stroke-width="1.5"/>
  <text x="635" y="46" text-anchor="middle" font-size="13" font-weight="bold" fill="#ca6f1e">条件分岐</text>
  <polygon points="635,64 682,97 635,130 588,97" fill="white" stroke="#e67e22" stroke-width="1.5"/>
  <text x="635" y="93" text-anchor="middle" font-size="11" fill="#555">スコア</text>
  <text x="635" y="107" text-anchor="middle" font-size="11" fill="#555">&gt;= 5?</text>
  <line x1="635" y1="130" x2="635" y2="150" stroke="#27ae60" stroke-width="2"/>
  <polygon points="630,150 640,150 635,158" fill="#27ae60"/>
  <rect x="588" y="158" width="94" height="22" rx="5" fill="#27ae60"/>
  <text x="635" y="174" text-anchor="middle" font-size="12" fill="white">クリア！</text>
  <line x1="682" y1="97" x2="702" y2="97" stroke="#aaa" stroke-width="1.5"/>
  <text x="706" y="101" font-size="10" fill="#888">続く</text>
</svg>
