<svg xmlns="http://www.w3.org/2000/svg" width="640" height="190" viewBox="0 0 640 190">
  <rect width="640" height="190" fill="#FFFFFF"/>

  <defs>
    <marker id="card5-arrow" viewBox="0 0 9 10" markerWidth="9" markerHeight="10"
            refX="7.8" refY="5" orient="auto" markerUnits="userSpaceOnUse">
      <path d="M 0,1 L 8.5,5 L 0,9 Z" fill="#8B5CF6"/>
    </marker>
  </defs>

  <!-- Box 1 -->
  <g transform="translate(14,20)">
    <rect x="0" y="0" width="128" height="112" rx="10" fill="#EFF6FF" stroke="#4A90D9" stroke-width="2"/>
    <text x="64" y="22" text-anchor="middle" font-family="system-ui,sans-serif" font-size="11" fill="#4A90D9" font-weight="bold">0&#12316;15&#20998;</text>
    <circle cx="64" cy="48" r="7" fill="none" stroke="#4A90D9" stroke-width="2"/>
    <line x1="64" y1="55" x2="64" y2="72" stroke="#4A90D9" stroke-width="2" stroke-linecap="round"/>
    <line x1="64" y1="61" x2="55" y2="56" stroke="#4A90D9" stroke-width="2" stroke-linecap="round"/>
    <line x1="64" y1="61" x2="73" y2="56" stroke="#4A90D9" stroke-width="2" stroke-linecap="round"/>
    <line x1="64" y1="72" x2="56" y2="82" stroke="#4A90D9" stroke-width="2" stroke-linecap="round"/>
    <line x1="64" y1="72" x2="72" y2="82" stroke="#4A90D9" stroke-width="2" stroke-linecap="round"/>
    <text x="64" y="100" text-anchor="middle" font-family="system-ui,sans-serif" font-size="12" fill="#1E3A5F" font-weight="bold">&#12414;&#12378;&#21205;&#12363;&#12377;</text>
  </g>

  <!-- Arrow 1 -->
  <line x1="148" y1="76" x2="162" y2="76" stroke="#94A3B8" stroke-width="2"/>
  <polygon points="162,70 170,76 162,82" fill="#94A3B8"/>

  <!-- Box 2 -->
  <g transform="translate(174,20)">
    <rect x="0" y="0" width="128" height="112" rx="10" fill="#FFF7ED" stroke="#F5A623" stroke-width="2"/>
    <text x="64" y="22" text-anchor="middle" font-family="system-ui,sans-serif" font-size="11" fill="#D97706" font-weight="bold">15&#12316;25&#20998;</text>
    <polygon points="64,41 80,51 64,61 48,51" fill="none" stroke="#F5A623" stroke-width="2" stroke-linejoin="round"/>
    <line x1="48" y1="51" x2="48" y2="65" stroke="#F5A623" stroke-width="2"/>
    <line x1="80" y1="51" x2="80" y2="65" stroke="#F5A623" stroke-width="2"/>
    <polygon points="48,65 64,75 80,65" fill="#FFF7ED" stroke="#F5A623" stroke-width="2" stroke-linejoin="round"/>
    <text x="64" y="99" text-anchor="middle" font-family="system-ui,sans-serif" font-size="12" fill="#78350F" font-weight="bold">&#12450;&#12452;&#12486;&#12512;&#12434;&#20316;&#12427;</text>
  </g>

  <!-- Arrow 2 -->
  <line x1="308" y1="76" x2="322" y2="76" stroke="#94A3B8" stroke-width="2"/>
  <polygon points="322,70 330,76 322,82" fill="#94A3B8"/>

  <!-- Box 3 -->
  <g transform="translate(334,20)">
    <rect x="0" y="0" width="128" height="112" rx="10" fill="#FEF2F2" stroke="#E74C3C" stroke-width="2"/>
    <text x="64" y="22" text-anchor="middle" font-family="system-ui,sans-serif" font-size="11" fill="#B91C1C" font-weight="bold">25&#12316;60&#20998;</text>
    <polygon points="70,33 58,59 66,59 56,81 76,52 67,52 78,33" fill="#E74C3C"/>
    <text x="64" y="91" text-anchor="middle" font-family="system-ui,sans-serif" font-size="12" fill="#7F1D1D" font-weight="bold">&#12466;&#12540;&#12512;&#12434;</text>
    <text x="64" y="103" text-anchor="middle" font-family="system-ui,sans-serif" font-size="12" fill="#7F1D1D" font-weight="bold">&#23436;&#25104;&#12373;&#12379;&#12427;</text>
  </g>

  <!-- Arrow 3 -->
  <line x1="468" y1="76" x2="482" y2="76" stroke="#94A3B8" stroke-width="2"/>
  <polygon points="482,70 490,76 482,82" fill="#94A3B8"/>

  <!-- Box 4 -->
  <g transform="translate(494,20)">
    <rect x="0" y="0" width="128" height="112" rx="10" fill="#F5F3FF" stroke="#8B5CF6" stroke-width="2"/>
    <text x="64" y="22" text-anchor="middle" font-family="system-ui,sans-serif" font-size="11" fill="#6D28D9" font-weight="bold">50&#12316;90&#20998;</text>
    <path d="M 78,40 A 22,22 0 1,0 78,72" fill="none" stroke="#8B5CF6" stroke-width="3" stroke-linecap="round" marker-end="url(#card5-arrow)"/>
    <text x="64" y="91" text-anchor="middle" font-family="system-ui,sans-serif" font-size="12" fill="#3B0764" font-weight="bold">&#12405;&#12426;&#12363;&#12360;&#12426;&#12539;</text>
    <text x="64" y="103" text-anchor="middle" font-family="system-ui,sans-serif" font-size="12" fill="#3B0764" font-weight="bold">&#30330;&#23637;&#28436;&#32722;</text>
  </g>
</svg>
