<svg xmlns="http://www.w3.org/2000/svg" width="800" height="190" viewBox="0 0 800 190">
  <rect width="800" height="190" fill="#FFFFFF"/>

  <!-- Box 1 -->
  <g transform="translate(14,20)">
    <rect x="0" y="0" width="128" height="112" rx="10" fill="#EFF6FF" stroke="#4A90D9" stroke-width="2"/>
    <text x="64" y="22" text-anchor="middle" font-family="system-ui,sans-serif" font-size="11" fill="#4A90D9" font-weight="bold">0&#12316;15&#20998;</text>
    <circle cx="64" cy="48" r="7" fill="none" stroke="#4A90D9" stroke-width="2"/>
    <line x1="64" y1="55" x2="64" y2="72" stroke="#4A90D9" stroke-width="2" stroke-linecap="round"/>
    <line x1="64" y1="61" x2="55" y2="56" stroke="#4A90D9" stroke-width="2" stroke-linecap="round"/>
    <line x1="64" y1="61" x2="73" y2="56" stroke="#4A90D9" stroke-width="2" stroke-linecap="round"/>
    <line x1="64" y1="72" x2="56" y2="82" stroke="#4A90D9" stroke-width="2" stroke-linecap="round"/>
    <line x1="64" y1="72" x2="72" y2="82" stroke="#4A90D9" stroke-width="2" stroke-linecap="round"/>
    <text x="64" y="100" text-anchor="middle" font-family="system-ui,sans-serif" font-size="13" fill="#1E3A5F" font-weight="bold">&#12414;&#12378;&#21205;&#12363;&#12377;</text>
  </g>

  <!-- Arrow 1 -->
  <line x1="148" y1="76" x2="162" y2="76" stroke="#94A3B8" stroke-width="2"/>
  <polygon points="162,70 174,76 162,82" fill="#94A3B8"/>

  <!-- Box 2 -->
  <g transform="translate(174,20)">
    <rect x="0" y="0" width="128" height="112" rx="10" fill="#FFF7ED" stroke="#F5A623" stroke-width="2"/>
    <text x="64" y="22" text-anchor="middle" font-family="system-ui,sans-serif" font-size="11" fill="#D97706" font-weight="bold">15&#12316;30&#20998;</text>
    <polygon points="64,38 80,48 64,58 48,48" fill="none" stroke="#F5A623" stroke-width="2" stroke-linejoin="round"/>
    <line x1="48" y1="48" x2="48" y2="62" stroke="#F5A623" stroke-width="2"/>
    <line x1="80" y1="48" x2="80" y2="62" stroke="#F5A623" stroke-width="2"/>
    <polygon points="64,68 80,62 64,72 48,62" fill="#FFF7ED" stroke="#F5A623" stroke-width="2" stroke-linejoin="round"/>
    <text x="64" y="97" text-anchor="middle" font-family="system-ui,sans-serif" font-size="12" fill="#78350F" font-weight="bold">&#12450;&#12452;&#12486;&#12512;&#12434;&#20316;&#12427;</text>
  </g>

  <!-- Arrow 2 -->
  <line x1="308" y1="76" x2="322" y2="76" stroke="#94A3B8" stroke-width="2"/>
  <polygon points="322,70 334,76 322,82" fill="#94A3B8"/>

  <!-- Box 3 -->
  <g transform="translate(334,20)">
    <rect x="0" y="0" width="128" height="112" rx="10" fill="#FEF2F2" stroke="#E74C3C" stroke-width="2"/>
    <text x="64" y="22" text-anchor="middle" font-family="system-ui,sans-serif" font-size="11" fill="#B91C1C" font-weight="bold">30&#12316;55&#20998;</text>
    <polygon points="70,35 58,62 66,62 56,85 76,55 67,55 78,35" fill="#E74C3C"/>
    <text x="64" y="97" text-anchor="middle" font-family="system-ui,sans-serif" font-size="12" fill="#7F1D1D" font-weight="bold">&#20181;&#32068;&#12415;&#12434;&#20837;&#12428;&#12427;</text>
  </g>

  <!-- Arrow 3 -->
  <line x1="468" y1="76" x2="482" y2="76" stroke="#94A3B8" stroke-width="2"/>
  <polygon points="482,70 494,76 482,82" fill="#94A3B8"/>

  <!-- Box 4 -->
  <g transform="translate(494,20)">
    <rect x="0" y="0" width="128" height="112" rx="10" fill="#F0FDF4" stroke="#2ECC71" stroke-width="2"/>
    <text x="64" y="22" text-anchor="middle" font-family="system-ui,sans-serif" font-size="11" fill="#166534" font-weight="bold">55&#12316;70&#20998;</text>
    <line x1="64" y1="36" x2="64" y2="50" stroke="#2ECC71" stroke-width="2.5" stroke-linecap="round"/>
    <line x1="64" y1="50" x2="46" y2="64" stroke="#2ECC71" stroke-width="2.5" stroke-linecap="round"/>
    <line x1="64" y1="50" x2="82" y2="64" stroke="#2ECC71" stroke-width="2.5" stroke-linecap="round"/>
    <circle cx="46" cy="74" r="7" fill="none" stroke="#2ECC71" stroke-width="2"/>
    <circle cx="82" cy="74" r="7" fill="none" stroke="#2ECC71" stroke-width="2"/>
    <text x="40" y="78" text-anchor="middle" font-family="system-ui,sans-serif" font-size="9" fill="#166534">Yes</text>
    <text x="88" y="78" text-anchor="middle" font-family="system-ui,sans-serif" font-size="9" fill="#166534">No</text>
    <text x="64" y="100" text-anchor="middle" font-family="system-ui,sans-serif" font-size="13" fill="#14532D" font-weight="bold">&#12523;&#12540;&#12523;&#12434;&#20316;&#12427;</text>
  </g>

  <!-- Arrow 4 -->
  <line x1="628" y1="76" x2="642" y2="76" stroke="#94A3B8" stroke-width="2"/>
  <polygon points="642,70 654,76 642,82" fill="#94A3B8"/>

  <!-- Box 5 -->
  <g transform="translate(654,20)">
    <rect x="0" y="0" width="128" height="112" rx="10" fill="#F5F3FF" stroke="#8B5CF6" stroke-width="2"/>
    <text x="64" y="22" text-anchor="middle" font-family="system-ui,sans-serif" font-size="11" fill="#6D28D9" font-weight="bold">70&#12316;90&#20998;</text>
    <path d="M 84,44 A 22,22 0 1,0 84,76" fill="none" stroke="#8B5CF6" stroke-width="2.5" stroke-linecap="round"/>
    <polygon points="84,76 76,84 92,84" fill="#8B5CF6"/>
    <text x="64" y="95" text-anchor="middle" font-family="system-ui,sans-serif" font-size="11" fill="#3B0764" font-weight="bold">&#12405;&#12426;&#12363;&#12360;&#12426;&#12539;</text>
    <text x="64" y="109" text-anchor="middle" font-family="system-ui,sans-serif" font-size="11" fill="#3B0764" font-weight="bold">&#30330;&#23637;&#28436;&#32722;</text>
  </g>
</svg>
